<?xml version="1.0" standalone="no"?>
<!DOCTYPE svg PUBLIC "-//W3C//DTD SVG 20010904//EN"
 "http://www.w3.org/TR/2001/REC-SVG-20010904/DTD/svg10.dtd">
<svg version="1.0" xmlns="http://www.w3.org/2000/svg"
 width="811.000000pt" height="206.000000pt" viewBox="0 0 811.000000 206.000000"
 preserveAspectRatio="xMidYMid meet">

<g transform="translate(0.000000,206.000000) scale(0.100000,-0.100000)"
fill="#000000" stroke="none">
<path d="M2430 1960 c-14 -5 -52 -16 -85 -26 -198 -58 -374 -267 -400 -476
l-7 -58 61 0 61 0 0 -30 0 -30 -60 0 c-59 0 -60 -1 -60 -27 0 -44 24 -122 61
-197 84 -176 300 -325 472 -326 l37 0 0 60 0 60 30 0 30 0 0 -60 0 -60 43 0
c172 0 375 141 464 322 58 118 63 133 63 183 l0 45 -60 0 -60 0 0 30 0 30 61
0 62 0 -7 54 c-27 233 -235 454 -474 505 -92 19 -92 19 -92 -49 l0 -60 -30 0
-30 0 0 60 c0 59 0 60 -27 59 -16 0 -39 -4 -53 -9z m336 -178 c120 -61 216
-192 230 -315 l7 -57 -37 0 c-35 0 -36 -1 -36 -40 0 -39 1 -40 35 -40 31 0 35
-3 35 -27 0 -31 -15 -78 -47 -150 -25 -56 -31 -63 -88 -108 -21 -16 -43 -35
-49 -41 -6 -5 -18 -13 -26 -17 -8 -4 -22 -11 -30 -16 -60 -35 -103 -51 -139
-51 l-41 0 0 40 0 40 -40 0 -40 0 0 -41 0 -42 -50 5 c-62 6 -181 65 -235 117
-75 70 -121 157 -134 249 l-8 52 39 0 c37 0 38 1 38 35 0 33 -2 35 -35 35 -34
0 -35 1 -35 38 0 21 11 66 24 99 24 61 80 153 94 153 4 0 21 13 37 28 62 57
166 102 238 102 24 0 27 -3 27 -35 0 -34 1 -35 40 -35 39 0 40 1 40 34 0 28 4
35 23 38 30 5 92 -14 163 -50z"/>
<path d="M2500 1605 c0 -30 -3 -35 -24 -35 -22 0 -73 -32 -88 -55 -3 -5 -16
-21 -27 -34 -12 -13 -21 -33 -21 -43 0 -11 -9 -22 -20 -25 -28 -7 -29 -73 -2
-73 13 0 22 -12 30 -38 7 -21 20 -46 29 -55 50 -46 63 -55 89 -64 23 -7 30
-16 32 -41 3 -30 6 -32 43 -32 37 0 39 2 39 30 0 20 6 33 18 36 58 19 76 31
107 74 19 26 35 55 35 65 0 9 9 19 20 22 15 4 20 14 20 39 0 21 -5 34 -13 34
-7 0 -18 15 -25 33 -20 56 -107 137 -147 137 -10 0 -15 10 -15 30 0 28 -2 30
-40 30 -39 0 -40 -1 -40 -35z m0 -90 c0 -22 4 -25 40 -25 36 0 40 3 40 25 0
29 4 30 47 7 53 -29 96 -98 68 -108 -17 -7 -20 -65 -5 -80 15 -15 -5 -63 -33
-83 -23 -17 -67 -41 -73 -41 -2 0 -4 11 -4 25 0 23 -4 25 -40 25 -34 0 -40 -3
-40 -21 0 -18 -4 -20 -27 -15 -50 12 -124 116 -83 116 6 0 10 16 10 35 0 19
-4 35 -10 35 -14 0 -12 30 4 59 12 22 80 71 99 71 4 0 7 -11 7 -25z"/>
<path d="M3670 1949 c-239 -69 -417 -265 -445 -491 l-7 -58 61 0 61 0 0 -30 0
-30 -60 0 c-59 0 -60 -1 -60 -27 0 -35 23 -118 43 -158 8 -16 23 -47 32 -68
23 -49 104 -138 170 -187 89 -66 203 -109 288 -110 l37 0 0 60 0 60 30 0 30 0
0 -60 0 -60 43 0 c172 0 375 141 464 322 58 118 63 133 63 183 l0 45 -60 0
-60 0 0 30 0 30 64 0 64 0 -14 68 c-7 37 -19 83 -26 102 -70 190 -251 347
-446 389 -92 19 -92 19 -92 -49 l0 -60 -30 0 -30 0 0 60 c0 59 0 60 -27 59
-16 -1 -57 -10 -93 -20z m110 -154 c0 -34 1 -35 40 -35 39 0 40 1 40 36 l0 37
54 -6 c71 -7 178 -62 241 -124 61 -60 112 -159 121 -236 l7 -57 -37 0 c-35 0
-36 -1 -36 -40 0 -39 1 -40 35 -40 31 0 35 -3 35 -27 0 -31 -15 -78 -47 -150
-25 -56 -31 -63 -88 -108 -21 -16 -43 -35 -49 -41 -6 -5 -18 -13 -26 -17 -8
-4 -22 -11 -30 -16 -60 -35 -103 -51 -139 -51 l-41 0 0 40 0 40 -40 0 -40 0 0
-41 0 -42 -50 5 c-62 6 -181 65 -235 117 -75 70 -121 157 -134 249 l-8 52 39
0 c37 0 38 1 38 35 0 33 -2 35 -35 35 -34 0 -35 1 -35 38 0 21 11 66 24 99 24
61 80 153 94 153 4 0 21 13 37 28 63 58 157 99 233 101 30 1 32 -1 32 -34z"/>
<path d="M3780 1605 c0 -30 -3 -35 -24 -35 -22 0 -73 -32 -88 -55 -3 -5 -16
-21 -27 -34 -12 -13 -21 -33 -21 -43 0 -11 -9 -22 -20 -25 -28 -7 -29 -73 -2
-73 13 0 22 -12 30 -38 7 -21 20 -46 29 -55 50 -46 63 -55 89 -64 23 -7 30
-16 32 -41 3 -30 6 -32 43 -32 37 0 39 2 39 30 0 20 6 33 18 36 58 19 76 31
107 74 19 26 35 55 35 65 0 9 9 19 20 22 15 4 20 14 20 39 0 21 -5 34 -13 34
-7 0 -18 15 -25 33 -20 56 -107 137 -147 137 -10 0 -15 10 -15 30 0 28 -2 30
-40 30 -39 0 -40 -1 -40 -35z m0 -90 c0 -22 4 -25 40 -25 36 0 40 3 40 25 0
29 4 30 47 7 53 -29 96 -98 68 -108 -17 -7 -20 -65 -5 -80 15 -15 -5 -63 -33
-83 -23 -17 -67 -41 -73 -41 -2 0 -4 11 -4 25 0 23 -4 25 -40 25 -34 0 -40 -3
-40 -21 0 -18 -4 -20 -27 -15 -50 12 -124 116 -83 116 6 0 10 16 10 35 0 19
-4 35 -10 35 -14 0 -12 30 4 59 12 22 80 71 99 71 4 0 7 -11 7 -25z"/>
<path d="M380 1944 c-25 -9 -52 -22 -61 -30 -8 -8 -21 -14 -27 -14 -6 0 -32
-20 -58 -45 -25 -25 -49 -45 -53 -45 -15 0 -45 -90 -49 -147 -3 -50 0 -71 18
-108 25 -51 75 -105 133 -142 21 -13 48 -33 62 -45 13 -11 32 -26 43 -32 44
-26 88 -57 152 -107 98 -77 128 -146 108 -254 -5 -30 -55 -100 -81 -113 -43
-23 -116 -39 -157 -36 -49 4 -136 59 -175 110 -35 45 -65 128 -65 176 0 37 -1
38 -35 38 l-35 0 0 -159 c0 -126 3 -161 15 -171 8 -6 60 -22 115 -35 140 -32
227 -27 332 22 42 19 85 45 95 57 10 11 33 33 51 48 17 15 45 53 62 85 37 70
41 163 11 228 -22 49 -103 123 -225 206 -177 121 -255 193 -273 257 -18 58
-17 71 11 128 34 71 69 88 161 81 79 -6 118 -21 152 -61 36 -41 73 -123 73
-161 0 -33 2 -35 35 -35 l35 0 0 140 c0 127 -2 140 -17 140 -10 0 -31 7 -48
16 -45 24 -245 30 -305 8z"/>
<path d="M4430 1795 c0 -138 2 -165 15 -165 19 0 35 31 35 67 0 42 47 126 86
151 54 35 233 69 234 45 5 -113 8 -930 3 -960 -7 -59 -41 -93 -91 -93 -39 0
-60 -19 -46 -41 3 -5 104 -9 225 -9 200 0 220 2 217 17 -2 9 -21 22 -43 30
-46 16 -79 47 -88 85 -4 15 -8 240 -8 500 l-1 473 43 3 c55 5 141 -14 183 -39
52 -31 84 -81 98 -153 12 -62 14 -66 40 -66 l28 0 0 160 0 160 -24 0 c-14 0
-28 -4 -31 -10 -4 -6 -153 -10 -415 -10 -262 0 -411 4 -415 10 -3 6 -15 10
-26 10 -18 0 -19 -8 -19 -165z"/>
<path d="M6110 1950 c-9 -6 -150 -10 -347 -10 l-333 0 0 -25 c0 -22 4 -25 38
-25 22 -1 47 -9 62 -21 21 -18 25 -31 30 -112 8 -139 6 -839 -3 -864 -9 -24
-63 -53 -101 -53 -21 0 -26 -5 -26 -25 l0 -25 345 0 c338 0 345 0 345 -20 0
-16 7 -20 30 -20 27 0 30 3 30 30 0 16 11 83 25 147 43 197 43 183 6 183 -26
0 -31 -4 -31 -23 0 -39 -59 -145 -98 -177 -63 -52 -133 -73 -247 -74 l-100 -1
-3 258 -2 257 165 0 165 0 0 34 0 34 -97 4 c-125 4 -166 27 -210 115 -27 55
-28 64 -28 200 0 78 3 145 7 148 15 16 218 9 218 -7 0 -4 8 -8 18 -8 11 0 38
-14 61 -31 48 -34 91 -113 91 -166 0 -30 3 -33 30 -33 l30 0 0 160 0 160 -27
0 c-16 0 -35 -5 -43 -10z"/>
<path d="M7620 1951 c-132 -45 -243 -134 -274 -221 -14 -37 -17 -68 -13 -110
8 -94 57 -155 195 -245 9 -5 21 -13 26 -18 70 -49 139 -97 172 -120 23 -15 56
-46 74 -69 46 -56 58 -105 48 -184 -8 -58 -13 -69 -50 -102 -53 -48 -68 -54
-157 -58 -80 -4 -106 5 -156 53 -16 16 -37 32 -46 35 -8 3 -21 24 -29 47 -7
23 -16 41 -20 41 -4 0 -7 6 -8 13 -1 6 -7 38 -14 70 -8 43 -15 56 -26 52 -7
-3 -22 -5 -33 -5 -18 0 -19 -9 -19 -153 0 -142 1 -154 21 -170 11 -10 27 -16
35 -13 8 3 34 -2 57 -12 55 -22 269 -24 313 -3 16 8 44 21 63 30 58 27 176
150 189 197 36 124 23 211 -40 275 -22 22 -90 76 -152 119 -233 165 -285 215
-307 293 -5 20 -7 51 -4 69 7 40 43 96 68 104 9 3 17 9 17 14 0 14 85 23 136
15 85 -12 184 -132 184 -220 0 -34 16 -45 53 -37 16 3 17 16 15 138 l-3 135
-55 20 c-61 22 -219 34 -260 20z"/>
<path d="M827 1933 c-17 -16 -4 -33 31 -39 48 -9 81 -31 93 -62 11 -29 12
-895 1 -937 -9 -34 -59 -65 -104 -65 -23 0 -28 -4 -28 -25 l0 -25 225 0 225 0
0 25 c0 20 -5 25 -24 25 -14 0 -28 5 -31 10 -3 6 -14 10 -24 10 -10 0 -27 17
-39 39 -21 37 -22 51 -22 270 l0 231 280 0 280 0 0 -231 c0 -193 -3 -237 -16
-265 -17 -36 -65 -64 -110 -64 -17 0 -24 -6 -24 -20 0 -27 31 -30 260 -27 194
2 195 2 198 25 3 18 -1 22 -23 22 -44 0 -92 29 -109 65 -23 49 -24 901 -1 945
19 36 43 50 89 50 29 0 36 4 36 20 0 19 -7 20 -225 20 -218 0 -225 -1 -225
-20 0 -17 7 -20 43 -20 35 0 49 -6 73 -31 l29 -30 0 -192 0 -192 -275 0 -275
0 -3 175 c-4 237 9 270 103 270 31 0 35 3 35 25 l0 25 -218 0 c-120 0 -222 -3
-225 -7z"/>
<path d="M6260 1915 c0 -22 4 -25 37 -25 26 0 45 -8 65 -27 l28 -27 0 -471 0
-472 -24 -26 c-15 -16 -40 -29 -65 -33 -31 -5 -41 -11 -41 -25 0 -18 12 -19
220 -19 213 0 220 1 220 20 0 15 -7 20 -25 20 -34 0 -70 25 -95 65 -19 30 -20
49 -20 274 0 132 3 241 8 241 4 0 21 -23 37 -52 17 -28 35 -56 40 -62 6 -6 17
-24 25 -41 8 -16 23 -39 33 -50 10 -11 25 -33 33 -48 13 -24 125 -194 146
-222 5 -5 23 -32 41 -59 50 -77 67 -85 177 -86 152 -2 150 -2 150 19 0 12 -10
21 -27 26 -29 7 -72 34 -116 75 -27 23 -110 133 -118 155 -2 6 -43 69 -92 142
-48 72 -85 137 -82 145 3 7 30 30 59 51 77 56 143 125 179 187 28 49 31 63 31
135 0 97 -22 140 -92 182 l-47 28 -342 3 -343 3 0 -26z m513 -39 c43 -17 101
-85 115 -135 20 -64 15 -215 -7 -259 -30 -59 -55 -75 -121 -80 -48 -4 -68 0
-113 22 -91 43 -87 32 -87 246 l0 188 38 15 c46 20 132 21 175 3z"/>
<path d="M3599 557 c-28 -6 -36 -13 -32 -26 3 -14 -46 -205 -83 -323 -4 -14 1
-18 24 -18 28 0 31 4 46 53 37 122 87 310 84 316 -2 4 -19 3 -39 -2z"/>
<path d="M729 544 c-8 -10 -15 -46 -16 -88 l-3 -71 35 70 c19 39 34 78 35 88
0 22 -33 23 -51 1z"/>
<path d="M841 541 c-6 -11 -11 -50 -11 -88 l1 -68 30 65 c17 36 31 74 32 85 3
28 -38 33 -52 6z"/>
<path d="M1105 536 c-64 -29 -110 -82 -130 -148 -20 -67 -19 -83 5 -133 25
-52 64 -75 130 -75 45 0 110 21 110 36 0 2 -8 0 -19 -5 -23 -13 -80 -16 -109
-7 -52 17 -66 107 -32 200 29 75 59 118 100 138 54 28 5 22 -55 -6z"/>
<path d="M1240 547 c14 -7 32 -27 41 -46 l15 -33 10 44 10 43 -50 2 c-47 2
-49 1 -26 -10z"/>
<path d="M1409 553 c-11 -2 -15 -11 -12 -22 4 -15 -26 -136 -76 -309 -10 -33
-10 -33 21 -30 l31 3 43 155 c62 220 60 210 32 209 -13 -1 -30 -3 -39 -6z"/>
<path d="M3238 552 c-9 -2 -21 -17 -27 -34 -15 -43 -14 -44 16 -14 15 15 40
30 55 33 15 3 28 8 28 12 0 6 -45 8 -72 3z"/>
<path d="M3325 546 c-2 -6 -20 -76 -41 -156 -20 -80 -43 -157 -51 -173 l-14
-27 50 0 c42 0 48 3 45 18 -3 9 14 87 36 172 23 85 43 159 43 165 3 13 -64 14
-68 1z"/>
<path d="M3425 550 c-20 -8 -20 -9 1 -9 23 -1 54 -30 55 -52 1 -16 28 39 29
59 0 14 -54 15 -85 2z"/>
<path d="M5273 523 c-1 -42 -70 -292 -84 -308 -18 -19 -8 -25 40 -25 43 0 49
2 44 19 -5 20 73 310 88 326 18 18 8 25 -39 25 l-47 0 -2 -37z"/>
<path d="M5918 552 c-19 -2 -29 -12 -37 -34 -14 -40 -13 -47 2 -28 32 42 107
68 107 38 0 -22 -77 -294 -89 -317 -11 -20 -10 -21 38 -21 42 0 48 3 45 18 -4
13 63 285 82 336 4 11 -87 16 -148 8z"/>
<path d="M6086 551 c-3 -5 8 -11 24 -14 22 -5 31 -14 36 -34 l7 -28 14 34 c8
18 13 34 11 36 -10 8 -88 13 -92 6z"/>
<path d="M7142 548 c-7 -7 -12 -40 -11 -82 l1 -71 28 60 c34 71 38 105 12 105
-10 0 -23 -5 -30 -12z"/>
<path d="M7251 529 c-6 -18 -11 -57 -10 -88 l1 -56 33 70 c42 85 44 105 11
105 -18 0 -27 -8 -35 -31z"/>
<path d="M2980 494 c-8 -9 -35 -30 -59 -46 -25 -15 -37 -28 -28 -28 22 0 22
-3 -9 -114 -15 -52 -24 -101 -21 -110 4 -10 18 -16 36 -16 31 0 50 15 29 22
-9 3 -6 28 12 94 28 108 36 124 58 124 15 1 16 2 1 13 -12 9 -14 18 -7 36 12
33 5 47 -12 25z"/>
<path d="M3938 439 c-10 -7 -10 -9 0 -9 27 0 9 -63 -31 -108 l-21 -22 31 10
c55 20 100 79 87 114 -6 17 -48 26 -66 15z"/>
<path d="M6547 394 c-15 -31 -23 -53 -19 -50 10 6 22 -63 22 -120 0 -18 4 -35
8 -38 13 -8 118 104 142 152 27 54 24 96 -7 100 -18 3 -23 -2 -23 -17 0 -12 5
-30 12 -40 15 -24 -2 -68 -42 -106 l-28 -27 -5 29 c-3 15 -9 58 -12 95 -4 37
-10 70 -14 72 -4 3 -20 -20 -34 -50z"/>
<path d="M6821 437 c-31 -6 -40 -11 -31 -17 12 -7 9 -29 -16 -120 l-31 -111
31 3 c26 3 32 9 44 48 24 80 54 201 50 204 -1 1 -23 -2 -47 -7z"/>
<path d="M1495 424 c-16 -12 -17 -16 -6 -24 12 -7 11 -20 -7 -83 -29 -98 -29
-137 -1 -137 31 0 65 20 49 30 -10 6 -7 27 13 98 14 50 23 100 20 111 -6 25
-39 27 -68 5z"/>
<path d="M1769 431 c20 -13 6 -69 -26 -103 -32 -33 -26 -35 27 -8 44 22 74 70
65 100 -5 15 -15 20 -43 20 -25 0 -33 -3 -23 -9z"/>
<path d="M1929 409 c-41 -44 -69 -110 -69 -162 0 -53 11 -70 41 -65 18 2 23 8
21 23 -10 63 12 176 41 213 5 7 7 15 4 19 -4 3 -21 -9 -38 -28z"/>
<path d="M2027 402 c-16 -40 -47 -175 -47 -205 0 -15 7 -18 33 -15 25 2 32 7
30 23 -1 11 9 63 23 115 14 52 27 99 27 104 1 5 -10 11 -24 12 -22 2 -29 -4
-42 -34z"/>
<path d="M2176 433 c-14 -4 -15 -7 -6 -13 13 -8 -18 -144 -64 -283 l-22 -67
43 0 c28 0 42 4 38 10 -10 17 15 111 28 103 7 -4 8 0 4 12 -6 15 20 134 40
185 3 8 8 25 10 38 3 19 -1 22 -24 21 -15 -1 -37 -4 -47 -6z"/>
<path d="M2279 423 c-8 -9 -9 -14 -3 -10 43 25 43 -101 1 -183 -21 -40 -23
-48 -9 -41 75 41 125 169 92 232 -13 24 -62 25 -81 2z"/>
<path d="M2559 431 c19 -12 6 -64 -26 -101 l-25 -30 28 11 c56 20 101 80 88
114 -4 10 -19 15 -43 15 -24 0 -31 -3 -22 -9z"/>
<path d="M2696 425 c-30 -31 -29 -54 9 -121 26 -46 36 -74 33 -95 -5 -34 4
-37 32 -9 36 36 35 64 -5 136 -21 38 -35 74 -32 85 6 23 -15 25 -37 4z"/>
<path d="M2803 410 c7 -20 14 -25 19 -17 14 23 9 47 -11 47 -17 0 -18 -3 -8
-30z"/>
<path d="M3665 426 c-16 -12 -17 -17 -7 -24 11 -7 8 -27 -13 -106 -27 -100
-26 -116 5 -116 36 0 50 11 44 36 -3 13 4 52 16 88 26 79 24 130 -5 134 -11 1
-29 -4 -40 -12z"/>
<path d="M4076 428 c-21 -8 -25 -13 -15 -19 13 -8 7 -44 -38 -201 -4 -14 1
-18 24 -18 26 0 31 5 42 42 7 23 15 55 17 71 2 16 12 53 24 83 l20 54 -23 -1
c-12 0 -35 -5 -51 -11z"/>
<path d="M4160 398 c-21 -38 -21 -41 -4 -26 16 14 23 15 33 5 10 -9 15 -8 27
8 19 26 14 49 -12 53 -15 2 -26 -8 -44 -40z"/>
<path d="M4307 401 c-34 -37 -67 -119 -67 -163 0 -33 20 -58 45 -58 28 0 42
17 26 33 -22 22 -5 121 33 196 23 43 5 39 -37 -8z"/>
<path d="M4415 414 c-8 -13 -15 -30 -15 -37 0 -8 -9 -51 -20 -96 -12 -45 -18
-86 -15 -91 9 -15 49 -12 71 6 10 8 13 13 7 9 -20 -10 -16 29 12 130 14 49 25
93 25 96 0 17 -51 4 -65 -17z"/>
<path d="M4569 433 c-11 -2 -15 -12 -12 -27 5 -26 -62 -280 -83 -313 -14 -23
-14 -23 31 -23 44 0 45 1 46 33 2 49 14 82 30 79 11 -3 11 -1 2 8 -8 9 -6 32
12 95 12 46 26 89 31 96 4 7 8 23 9 36 0 18 -4 23 -25 22 -14 -1 -32 -3 -41
-6z"/>
<path d="M4664 425 c-19 -14 -18 -14 3 -15 15 0 25 -8 29 -24 9 -36 -14 -130
-41 -170 -27 -41 -20 -46 19 -15 86 67 112 239 36 239 -14 0 -35 -7 -46 -15z"/>
<path d="M4827 429 c-16 -9 -16 -12 -2 -32 11 -16 15 -51 15 -147 l1 -125 28
34 c28 34 28 38 24 120 -9 151 -20 177 -66 150z"/>
<path d="M4957 427 c-3 -9 1 -23 8 -34 8 -10 15 -27 15 -38 1 -17 3 -16 16 8
20 37 15 71 -12 75 -12 2 -24 -3 -27 -11z"/>
<path d="M5431 433 c-19 -4 -21 -7 -10 -14 12 -7 10 -22 -10 -96 -38 -141 -38
-133 -3 -133 24 0 31 5 36 28 3 15 17 68 31 117 13 50 25 93 25 98 0 7 -28 7
-69 0z"/>
<path d="M5551 416 l-23 -25 22 6 c26 7 26 7 -9 -122 -22 -84 -19 -97 23 -93
26 3 30 7 28 26 -2 12 6 52 18 87 22 67 28 114 16 134 -12 19 -51 12 -75 -13z"/>
<path d="M6188 415 c-38 -26 -88 -112 -88 -153 0 -26 17 -63 34 -74 23 -15 32
-8 28 22 -6 39 15 123 45 183 13 26 22 47 20 47 -1 0 -19 -11 -39 -25z"/>
<path d="M6282 395 c-1 -55 -17 -117 -43 -167 -23 -44 -13 -48 29 -13 62 52
90 155 56 203 -25 36 -41 27 -42 -23z"/>
<path d="M6412 429 c-21 -8 -22 -10 -8 -25 13 -12 16 -38 16 -120 0 -61 4
-104 10 -104 23 0 50 79 50 147 0 112 -10 126 -68 102z"/>
<path d="M6921 416 c-23 -24 -23 -25 -2 -19 27 7 26 2 -4 -102 -28 -99 -25
-117 19 -113 25 2 30 7 28 25 -2 12 8 60 22 108 19 64 23 92 15 106 -14 26
-51 24 -78 -5z"/>
<path d="M1708 412 c-75 -50 -116 -174 -70 -215 26 -23 88 -21 128 4 37 22 47
37 14 19 -12 -6 -38 -10 -58 -8 -37 3 -37 3 -40 53 -2 40 3 63 26 108 16 31
28 57 28 57 -1 0 -13 -8 -28 -18z"/>
<path d="M2488 409 c-57 -42 -96 -138 -77 -188 13 -33 26 -41 73 -41 37 0 114
36 102 48 -3 2 -12 -1 -20 -7 -8 -7 -32 -11 -53 -9 -30 2 -39 8 -47 30 -11 33
8 106 40 154 26 39 21 42 -18 13z"/>
<path d="M3870 408 c-66 -45 -104 -172 -64 -212 22 -23 90 -20 130 5 36 22 47
37 15 19 -11 -5 -36 -10 -56 -10 -53 0 -64 31 -40 111 10 34 27 72 38 85 23
30 19 30 -23 2z"/>
<path d="M2637 231 c-10 -49 -9 -51 19 -51 20 0 24 3 17 13 -6 6 -15 25 -20
42 l-10 30 -6 -34z"/>
<path d="M4724 105 c-13 -32 26 -46 68 -24 19 10 19 11 -7 25 -35 18 -54 18
-61 -1z"/>
</g>
</svg>
